<svg width="234.15" height="28.7" viewBox="0 0 669 82" fill="none" xmlns="http://www.w3.org/2000/svg">
<path d="M178.3 13.5996L144.5 70.7996H153.3C154.8 70.7996 156.1 70.0996 156.8 68.8996L181.9 25.9996L207.2 68.8996C207.9 70.0996 209.2 70.7996 210.7 70.7996H219.1L185.3 13.5996C183.8 11.0996 179.8 11.0996 178.3 13.5996Z" fill="#101828"/>
<path d="M320.5 19.2996H343.1V70.7996H350.4C352.1 70.7996 353.4 69.5996 353.4 68.0996V19.2996H367C372.3 19.2996 376.6 15.3996 376.6 10.5996H330.1C324.8 10.5996 320.5 14.4996 320.5 19.2996Z" fill="#101828"/>
<path d="M466.9 36.5002H458.9C458.9 36.5002 458.8 36.5002 458.7 36.5002H456.1C451.3 36.5002 447.4 32.6002 447.4 27.8002C447.4 23.0002 451.3 19.1002 456.1 19.1002H458.6C458.7 19.1002 458.8 19.1002 458.9 19.1002H480.9C486 19.1002 490.2 15.3002 490.2 10.7002H458.9C456.1 10.7002 453.4 11.1002 450.9 11.8002C448.4 12.6002 446.1 13.7002 444.2 15.1002C442.2 16.6002 440.7 18.4002 439.5 20.5002C438.3 22.7002 437.7 25.1002 437.7 27.9002C437.7 30.7002 438.3 33.1002 439.5 35.2002C440.7 37.3002 442.3 39.1002 444.3 40.6002C446.3 42.1002 448.5 43.2002 451.1 43.9002C453.5 44.6002 456.1 45.0002 458.7 45.0002H461.6" fill="#101828"/>
<path d="M458.6 45H466.6C466.6 45 466.7 45 466.8 45H469.4C474.2 45 478.1 48.9 478.1 53.7C478.1 58.5 474.2 62.4 469.4 62.4H466.9C466.8 62.4 466.7 62.4 466.6 62.4H444.6C439.5 62.4 435.3 66.2 435.3 70.8H466.6C469.4 70.8 472.1 70.4 474.6 69.7C477.1 68.9 479.4 67.8 481.3 66.4C483.3 64.9 484.8 63.1 486 61C487.2 58.8 487.8 56.4 487.8 53.6C487.8 50.8 487.2 48.4 486 46.3C484.8 44.2 483.2 42.4 481.2 40.9C479.2 39.4 477 38.3 474.4 37.6C472 36.9 469.4 36.5 466.8 36.5H463.9" fill="#101828"/>
<path d="M660.7 10.5996C659.6 10.5996 658.7 11.3996 658.7 12.3996V58.0996L614.4 11.3996C613.9 10.8996 613.2 10.5996 612.4 10.5996H605.7V70.7996H613.1C614.2 70.7996 615.1 69.9996 615.1 68.9996V24.7996L657.9 69.9996C658.4 70.4996 659.1 70.7996 659.9 70.7996H668.3V10.5996H660.7Z" fill="#101828"/>
<path d="M542.3 13.5996L508.5 70.7996H517.3C518.8 70.7996 520.1 70.0996 520.8 68.8996L545.9 25.9996L571.2 68.8996C571.9 70.0996 573.2 70.7996 574.7 70.7996H583.1L549.3 13.5996C547.8 11.0996 543.8 11.0996 542.3 13.5996Z" fill="#101828"/>
<path d="M298.2 27.4998C298.2 19.4998 292.9 10.2998 280.4 10.2998H241.7V19.0998H280.7C286 19.0998 288.4 24.2998 288.4 27.8998C288.4 31.4998 286.2 37.1998 280.7 37.1998H250.4C244.3 37.1998 241.7 39.4998 241.7 45.0998V67.7998C241.7 69.4998 243 70.7998 244.7 70.7998H251.4V46.7998C251.4 45.8998 251.9 45.4998 252.8 45.4998H276.5L288.3 69.0998C288.8 70.0998 289.8 70.7998 291 70.7998H299.9L286.5 44.8998C294.9 42.6998 298.2 33.6998 298.2 27.4998Z" fill="#101828"/>
<path d="M405.4 70.8H397.8V20.3C397.8 14.9 402.2 10.5 407.6 10.5H408.1V68.1C408.1 69.6 406.9 70.9 405.3 70.9L405.4 70.8Z" fill="#101828"/>
<path d="M0 81.0999C13.9 81.3999 27.1 76.7999 38.9 69.7999L21.6 58.3999C18.2 56.1999 13.7 57.1999 11.7 60.6999L0 81.0999Z" fill="#7D37FF"/>
<path d="M46.7001 64.8C61.8001 74.2 78.1001 82.3 93.7001 81.1L46.9001 0C41.5001 9.3 30.3001 28.8 23.1001 41.3C15.9001 53.8 22.2001 48.6 25.3001 50.6L32.6001 55.4L46.8001 64.8H46.7001Z" fill="#7D37FF"/>
</svg>
